<svg xmlns="http://www.w3.org/2000/svg" viewBox="0 0 1600 1000" role="img" aria-labelledby="title desc">
  <title id="title">Beauty retail market entry merchandising system</title>
  <desc id="desc">No-people retail merchandising and channel analytics for beauty brand Vietnam entry.</desc>
  <style>.bar{transform-origin:bottom;animation:bar 4.4s ease-in-out infinite alternate}@keyframes bar{from{transform:scaleY(.38)}to{transform:scaleY(1)}}</style>
  <rect width="1600" height="1000" fill="#f7f1f6"/><rect x="112" y="96" width="1376" height="808" fill="#fff" stroke="#e0d5dd"/>
  <g fill="#071a31" font-family="Plus Jakarta Sans, sans-serif"><text x="170" y="178" font-size="54" font-weight="800">Beauty Market Entry</text><text x="170" y="234" font-size="26" fill-opacity=".58">retail channel · merchandising · local sales data</text></g>
  <rect x="210" y="356" width="480" height="392" fill="#071a31"/><g fill="#fff" fill-opacity=".14"><rect x="260" y="418" width="380" height="18"/><rect x="260" y="514" width="380" height="18"/><rect x="260" y="610" width="380" height="18"/></g><g fill="#c8a45d"><rect x="300" y="452" width="60" height="62"/><rect x="430" y="452" width="60" height="62"/><rect x="560" y="452" width="60" height="62"/><rect x="300" y="548" width="60" height="62"/><rect x="430" y="548" width="60" height="62"/><rect x="560" y="548" width="60" height="62"/></g>
  <g fill="#0b4d8f"><rect class="bar" x="912" y="676" width="62" height="112"/><rect class="bar" x="1016" y="612" width="62" height="176"/><rect class="bar" x="1120" y="536" width="62" height="252"/><rect class="bar" x="1224" y="458" width="62" height="330"/></g>
</svg>
